PathFileType	4	(X/Y/Z)	3_coords_data.trc
DataRate	CameraRate	NumFrames	NumMarkers	Units	OrigDataRate	OrigDataStartFrame	OrigNumFrames
30.0	30.0	6	21	m	30.0	53	63
Frame#	Time	THUMB_TIP	THUMB_IP	THUMB_MCP	THUMB_CMC	INDEX_TIP	INDEX_DIP	INDEX_PIP	INDEX_MCP	MIDDLE_TIP	MIDDLE_DIP	MIDDLE_PIP	MIDDLE_MCP	RING_TIP	RING_DIP	RING_PIP	RING_MCP	PINKY_TIP	PINKY_DIP	PINKY_PIP	PINKY_MCP	WRIST
X1	Y1	Z1	X2	Y2	Z2	X3	Y3	Z3	X4	Y4	Z4	X5	Y5	Z5	X6	Y6	Z6	X7	Y7	Z7	X8	Y8	Z8	X9	Y9	Z9	X10	Y10	Z10	X11	Y11	Z11	X12	Y12	Z12	X13	Y13	Z13	X14	Y14	Z14	X15	Y15	Z15	X16	Y16	Z16	X17	Y17	Z17	X18	Y18	Z18	X19	Y19	Z19	X20	Y20	Z20	X21	Y21	Z21
51	1.7333333333333258	0.5555508088070269	-0.03663736165501558	-0.13020407665745404	0.5406842683767644	-0.02977387822771299	-0.1140833269578117	0.5192595714563735	-0.017465663327913772	-0.09515424330725575	0.4800249737859904	-0.018093864189706488	-0.0739377000138628	0.5530809315452425	-0.08039215432661012	-0.16604159465391893	0.5537087298037556	-0.07887554970321164	-0.14800535946575127	0.5503082193157889	-0.07291895877809457	-0.12381930178840261	0.5308495338527909	-0.05138133106374565	-0.09265640323114033	0.5413035060128221	-0.09833761597364643	-0.16712154242299587	0.5421107219427448	-0.0991375169779718	-0.14904646121084758	0.5384928349450115	-0.09327309896695157	-0.12072810947449725	0.5183241051093495	-0.06940588676743426	-0.08879495366992174	0.5180064760405314	-0.10296520435586326	-0.1574572553148752	0.5198555496422846	-0.10780127038134418	-0.14018897826670135	0.5197048889249648	-0.10653434448850785	-0.11531826900600028	0.5028456876566404	-0.08187884575399967	-0.08806768096194517	0.4977075899529394	-0.10989945360958425	-0.15255416200781774	0.49588045254780144	-0.11080956122951802	-0.13555906644989624	0.49273068998417946	-0.1058994130256341	-0.1153902425028065	0.4809508223843241	-0.08398589464371709	-0.0892767233516989	0.4622830810018609	-0.023011742144276925	-0.051989820119430985
52	1.7666666666666588	0.554984400061184	-0.03701023475018961	-0.13073391764036002	0.5403349632201419	-0.030003677073004387	-0.1144765454739674	0.5190635024078619	-0.017585126430533782	-0.09544697493619558	0.47994821300658164	-0.018137227652247123	-0.07400917375941751	0.5525947733848883	-0.08061327658274448	-0.16624853629057385	0.5533467401290524	-0.079075320956015	-0.14821885968488058	0.5500664281637032	-0.07307512140492767	-0.12402698105263876	0.5306927680847214	-0.051363299867170364	-0.09293205872347621	0.5406767874548214	-0.09830490402497633	-0.1674746871486001	0.5415863003989321	-0.09908759277023776	-0.14940371084590587	0.5381670384307803	-0.09322595683686902	-0.12106011506523973	0.5182261124703103	-0.06939524882969283	-0.08895708173946582	0.5173147939604641	-0.1027464512758437	-0.15776706214253206	0.5192993007727161	-0.10764267672967431	-0.1405308006854356	0.5193342040836777	-0.1064563728903149	-0.11565568372169838	0.5027350984447722	-0.08190022812933762	-0.08815684228307796	0.49725390748266085	-0.10971331145383734	-0.15271389981143096	0.4955564269229261	-0.11070753053369359	-0.13571007411923536	0.4925049052508179	-0.10585431925577482	-0.11551238675715014	0.48087929761708703	-0.08401120768975051	-0.08927106104253046	0.462283081001861	-0.023011742144276925	-0.051989820119430985
53	1.7999999999999918	0.5543931351909007	-0.037226385667728956	-0.13131865447394897	0.5399696117359962	-0.030109078966053637	-0.11490811162917658	0.5188509557420681	-0.017625575564006124	-0.09575127181095	0.4798623936210107	-0.01816330552414891	-0.07408348765514827	0.5521343076745004	-0.08060831794852957	-0.1664508215789291	0.5530101159504344	-0.07910625722494719	-0.14842370940180882	0.5498711257908365	-0.07311236372638863	-0.12421152621842191	0.5306067329005439	-0.05130014221574969	-0.09311898284642883	0.5401144218425731	-0.09806602635288436	-0.16783095432477685	0.5411375872405931	-0.09889359796852515	-0.14976805705470198	0.537923739137854	-0.09309922319425035	-0.1213866203160911	0.518164463780088	-0.0693410605716217	-0.08911792546903063	0.5166966019647607	-0.10239662937142013	-0.15804377142284143	0.5188205759504853	-0.10738485310243834	-0.14085056466792584	0.5190505419661955	-0.106329621748464	-0.11597058111846964	0.5026839342509416	-0.08189130467003614	-0.08822848955584195	0.49685960112162586	-0.10939835918977747	-0.15291341932953478	0.49528073175631104	-0.11049718215640314	-0.13590460515525193	0.49234759203597966	-0.10574355447449252	-0.11566573823433002	0.48083303786039067	-0.08402381383933055	-0.08927347876533553	0.4622830810018608	-0.02301174214427698	-0.051989820119430985
55	1.8333333333333337	0.5538467510082352	-0.0373297389945888	-0.13186141946825825	0.5396394264562413	-0.030115121626671404	-0.11530541677108341	0.5186638603809435	-0.017609057192491062	-0.09600660903099378	0.47978484617782435	-0.018154608911715164	-0.07414306339184085	0.5517183850777888	-0.08046838885521013	-0.16662954218839132	0.5527366127687071	-0.07904300408534781	-0.14860368601934099	0.5497526013763885	-0.0731059917941535	-0.12435791537651086	0.530538847097521	-0.051196802333448255	-0.09330223702799911	0.5395939453476215	-0.09770258819020022	-0.16815240200745435	0.5407561602432529	-0.09862474779080266	-0.1501025023343983	0.5377449647682399	-0.09294514042024549	-0.12167567852434918	0.5181361238093283	-0.06925899866409846	-0.08926259527150471	0.516166960552149	-0.10196565235081761	-0.15830067595921898	0.5184216984551423	-0.10708190743009799	-0.14116182853727877	0.5188350987857239	-0.10617618042141919	-0.11627832521173348	0.5026657086972507	-0.08184056603648027	-0.08833106182738137	0.4965558423920958	-0.10899872797158155	-0.15315108590058607	0.49508552535630135	-0.11020825885374486	-0.13614005410179897	0.49227660167209886	-0.10557058175470052	-0.11585671320683483	0.48083606640491616	-0.08400064666831752	-0.08930985832401339	0.462283081001861	-0.023011742144276925	-0.051989820119430985
56	1.8666666666666671	0.5533225709576249	-0.03734718305007756	-0.13238785328610103	0.5393253586097715	-0.03004526017167275	-0.11569174689068873	0.5184791359915911	-0.017539605422032478	-0.09625303289423137	0.479707896779609	-0.018139565030952043	-0.07420034465821523	0.5513819956671276	-0.08022296399795725	-0.1667781342755505	0.5525405918627093	-0.07887422307736613	-0.1487548561945602	0.5497032484537133	-0.07299943690117827	-0.12447634300360266	0.5305219152116164	-0.05102268638031232	-0.0934483719839041	0.539181829530241	-0.09726117202879331	-0.16841583700121943	0.540494916502683	-0.09828212287842525	-0.1503816067164127	0.537676933504542	-0.092723953040456	-0.12191100310717251	0.5181750208578211	-0.06912517877412877	-0.08936993402137583	0.5157912429639105	-0.10151918259564735	-0.15848562279004852	0.5181818524960042	-0.10675575516311375	-0.14140161583000765	0.5187610338825166	-0.10598410700752436	-0.11651689989742176	0.5027322430984521	-0.08175338279764405	-0.08839803249019129	0.4964101757678566	-0.10861955688020458	-0.1533274103196186	0.4950379494234767	-0.10992820711161794	-0.13631551949491572	0.4923370814375305	-0.10539756045645265	-0.11599335002390376	0.480923285010168	-0.08396575781691556	-0.08932339431087977	0.4622830810018608	-0.02301174214427687	-0.051989820119430985
57	1.9000000000000004	0.5528549845848281	-0.03730516482264229	-0.1328552000829431	0.539051644718609	-0.02992569076361168	-0.11603226421699664	0.5183155010656051	-0.017434470491919596	-0.09646694381261656	0.47964001395092526	-0.018120468226254682	-0.0742492458321613	0.5511410119877791	-0.07992838876229696	-0.1668907504418316	0.5524220513792449	-0.07864573134184982	-0.1488709355698834	0.5497069018161004	-0.07282742546883503	-0.12456486405230172	0.5305446842270715	-0.050810356386963795	-0.0935536696200514	0.5388818283528735	-0.09680099802454367	-0.1686192649319338	0.5403409594407769	-0.09791119120488112	-0.15060154011522492	0.5376920207118955	-0.09246824806209764	-0.12209247061874606	0.5182592568197573	-0.06896498515073429	-0.08944109635927966	0.5155597736651368	-0.10110370143708575	-0.1586043484610939	0.5180790428251222	-0.10644110956181191	-0.14157010772633682	0.5187953692374153	-0.10577801698705747	-0.11668583229568874	0.5028582529980786	-0.08164678860406949	-0.08842962984911162	0.49639658141299536	-0.10828920607306802	-0.15344055958614639	0.4951079685795323	-0.10967995193607044	-0.13642864308887964	0.49249413226535066	-0.10524079980544643	-0.1160749258096247	0.48106676773842416	-0.08392505527005656	-0.08931791129247912	0.4622830810018609	-0.02301174214427698	-0.051989820119430985
